<?xml version="1.0" encoding="UTF-8"?>
<svg id="Layer_1" data-name="Layer 1" xmlns="http://www.w3.org/2000/svg" xmlns:xlink="http://www.w3.org/1999/xlink" viewBox="0 0 631.72 634.88">
  <defs>
    <style>
      .cls-1 {
        fill: #35bdee;
      }

      .cls-2 {
        fill: #1f429b;
      }

      .cls-3 {
        fill: url(#linear-gradient);
      }

      .cls-4 {
        fill: #fff;
      }

      .cls-5 {
        fill: #a66868;
      }
    </style>
    <linearGradient id="linear-gradient" x1="91.28" y1="73.14" x2="594.87" y2="594.52" gradientUnits="userSpaceOnUse">
      <stop offset="0" stop-color="#35bdee"/>
      <stop offset="0" stop-color="#35bdee"/>
      <stop offset="1" stop-color="#1f429b"/>
    </linearGradient>
  </defs>
  <g>
    <path class="cls-4" d="M565.83,289.28c-.01,1.18-.04,2.36-.07,3.55-.41,16.47-2.35,33.64-5.82,51.31-3.86,19.71-9.41,41.72-16.04,63.7-.04.25-.11.5-.22.78l-.07.19c-1.48,4.88-2.95,9.84-4.43,14.84-5.07,17.14-10.32,34.87-16.76,51.76-.19.53-.4,1.04-.6,1.56-18.34,47.45-46.37,87.91-106.78,89.5-.32,0-.65.01-.97.01-.38.01-.77.02-1.15.02-3.19.04-7.01.07-11.36.12-10.35.11-23.78.24-39.1.36-1.61.01-3.24.02-4.89.04-1.66.01-3.32.02-5.01.04-4.24.05-8.58.07-13.02.1-24.86.17-52.62.3-79.57.3-11.45,0-22.15-.02-31.95-.07-1.63,0-3.24-.01-4.82-.02-1.58-.01-3.14-.01-4.67-.02-.36,0-.71,0-1.06-.01-.37,0-.73-.01-1.1-.01-45.04-.79-72.66-16.78-92.07-53.2-12.27-23.04-23.11-47.69-32.04-72.76-1.01-2.83-1.99-5.67-2.95-8.51-.53-1.58-1.06-3.16-1.57-4.74-6.83-20.76-12.3-41.64-16.21-61.98-3.55-18.47-5.43-36.43-5.65-53.85-.04-2.35-.04-4.7,0-7.04.28-21.05,3.02-41.27,8.23-60.56.28-1.03.55-2.04.85-3.06.22-.76.43-1.52.66-2.28.17-.61.36-1.22.54-1.81.2-.66.41-1.3.61-1.96.62-2.01,1.28-4,1.98-5.99.98-2.85,2.03-5.68,3.13-8.49.4-1,.8-2.02,1.21-3.02.83-2.01,1.68-4.01,2.56-6.02,0-.02.01-.05.02-.07.42-.97.85-1.92,1.3-2.88,1.01-2.18,2.04-4.36,3.12-6.51.53-1.06,1.07-2.11,1.61-3.16,1.09-2.1,2.21-4.19,3.35-6.24,1.15-2.05,2.32-4.08,3.52-6.09.6-1,1.2-1.99,1.82-2.98,0-.01,0-.02.01-.04.6-.97,1.21-1.93,1.82-2.89.01-.02.02-.05.05-.07.62-.97,1.25-1.93,1.88-2.89.64-.97,1.28-1.92,1.92-2.86l.02-.02c.65-.95,1.31-1.9,1.98-2.84.61-.87,1.24-1.73,1.86-2.59,2.76-3.78,5.63-7.48,8.63-11.09.66-.81,1.33-1.6,2-2.4.48-.56.96-1.12,1.46-1.68.55-.66,1.13-1.31,1.72-1.97.55-.62,1.1-1.24,1.66-1.85,2.26-2.48,4.57-4.93,6.96-7.32.8-.81,1.61-1.61,2.42-2.41,31.55-30.93,72.5-53.45,120.32-65.61,11.79-3,24.27-5.19,37-6.54.05-.01.11-.01.16-.01,5.6-.6,11.27-1.03,16.93-1.28.04,0,.07-.01.11,0,2.41-.11,4.82-.18,7.23-.23.12-.01.24,0,.36-.01,1.72-.02,3.44-.06,5.16-.06.4,0,.78.02,1.16.02,1.26,0,2.51.04,3.77.05,1.32.02,2.64.04,3.95.08,2.52.07,5.05.18,7.56.32h.02c2.16.12,4.32.27,6.47.45,6.75.55,13.44,1.35,19.99,2.4,1.84.29,3.67.6,5.49.93.02,0,.06.01.1.01,1,.19,2,.38,3,.57,43.35,8.45,81.54,25.37,113.54,50.28,45.66,35.55,72.56,84.4,77.77,141.28.5,5.44.82,10.98.94,16.62.06,2.91.08,5.86.04,8.82Z"/>
    <path class="cls-1" d="M561.94,264.11c-5.21-56.78-32.38-104.76-76.64-139.21-32.96-25.65-71.43-41.74-112.28-49.72-38.06-7.42-80.19-6.14-117.14,3.26-73.03,18.55-134.57,63.1-166.17,131.87-22.57,49.12-25.53,101.61-15.22,155.25,9.59,49.92,28.27,101.73,52.48,147.15,18.91,35.47,45.58,51.35,91.63,51.66,56.73.38,137.09-.18,194.34-.82,88.3-.99,106.75-85.97,127.91-155.73,6.73-22.2,12.31-44.3,16.22-64.25,5.4-27.55,7.19-54.3,4.87-79.47ZM259.19,93.31c19.34-4.91,41.81-7.97,62.36-7.78,55.69.49,109.87,17.18,154.39,51.62,40.93,31.66,65.44,75.82,70.77,128.15,2.4,23.65.05,49.01-4.76,75.11-3.58,19.4-9.29,40.92-15.86,62.68-18.64,61.73-33.68,143.88-113.18,145.2-57.74.96-137.94.39-194.34,1.11-38.2.49-65.54-16.7-77.49-41.78-44.19-92.76-80.67-192.96-37.18-291.37,27.95-63.27,88.6-105.98,155.29-122.93Z"/>
    <path class="cls-3" d="M319.27,397.96c44.59-13.83,97.04-19.43,139.04,8.03,30.76,20.11,36.65,53.49,57.45-2.39,33.93-91.15,36.14-196.44-49.85-258.67-113.97-82.48-281.51-61.49-349.5,73.34-24.54,48.67-34.03,176.14,12.11,213,56.74,45.32,133.59-15.58,190.76-33.31Z"/>
    <g>
      <path class="cls-2" d="M330.57,503.92c-.11-1.87-1.66-3.35-3.56-3.35h-3.22c-1.98,0-3.58-1.61-3.58-3.58l.07-27.65c0-1.96-1.58-3.56-3.54-3.58h-.76c-.18,0-.37,0-.55.03.03.44-.62,1.28-2.46,2.61.25,1.11-.08,1.64-.61,2.11l-.14,34.47c-.01,1.98,1.59,3.59,3.58,3.59h4.32v-.09h6.88c1.18,0,2.22-.57,2.87-1.44.44-.59.7-1.31.71-2.1v-.76c.01-.09.01-.18,0-.27ZM315.16,468.81c-.36,0-.3-.18.24-.78.36-.36.72-.54.91-.54.12,0,.12.06.12.18,0,.42-.9,1.14-1.26,1.14Z"/>
      <path class="cls-2" d="M359.6,486.77c-.12-1.97-.28-3.75-.5-5.33-.34-1.98-.74-3.75-1.19-5.33-.67-2.32-1.52-4.2-2.53-5.67-.85-1.18-1.81-2.12-2.88-2.79-.62-.39-1.31-.69-2.07-.89-.77-.2-1.51-.3-2.25-.3-.79,0-1.52.09-2.2.26-.79.22-1.47.51-2.03.85-1.02.62-1.98,1.44-2.88,2.45-1.18,1.41-2.23,3.19-3.13,5.33-1.13,2.77-2.09,6.21-2.88,10.33-.62,3.1-1.1,6.52-1.44,10.24-.17,1.69-.31,3.41-.42,5.16-.05.82-.1,2.58-.13,3.35.2,1.15.87,2.61,2.88,2.84l1.06.02c2.53-.09,3.2-.94,3.47-1.79.04-.95.1-2.93.18-4.01.11-1.63.25-3.22.42-4.78,0-.02,0-.06,0-.08h0c.03-.68.62-1.2,1.29-1.17l10.05.45v1.01c-.06,1.64-.11,3.27-.17,4.91-.03.48-.06,1.27-.09,2.13h0c0,.17-.01.33-.02.5v.03c.02,1.15.39,3.77,3.4,3.77,3.85,0,3.74-1.67,4.03-2.76h0c.04-1.28.09-2.61.13-3.33.05-1.69.11-3.38.17-5.08.05-3.78-.03-7.22-.26-10.33ZM336.62,484.69l-.77,3.86-.5,4.81-.51,3.37v1.45s-.25.96-.25.96l-.26.97.75-8.18.51-3.37.51-2.38.52-2.43.21-.78.31-1.15-.51,2.89ZM344.19,469.05c.34-.34.68-.51.85-.51.11,0,.11.06.11.17,0,.39-.85,1.07-1.19,1.07s-.28-.17.23-.74ZM351.34,488.35l-9.09-.39c0-.05.01-.18.04-.38.02-.16.04-.29.04-.4,0-.05.01-.09.02-.13.73-3.58,1.57-6.52,2.52-8.82.57-1.46,1.19-2.6,1.86-3.38.34-.4.62-.65.85-.77.06-.05.17-.11.34-.17h.25c.11,0,.26.03.42.09.18.11.4.37.68.76.56.79,1.07,1.92,1.53,3.39.67,2.36,1.12,5.38,1.35,9.08,0,.04.01.08.02.11.13.52-.29,1.03-.83,1.01Z"/>
      <path class="cls-2" d="M391.24,490.54c-.21-1.74-.83-3.27-1.86-4.59-.91-1.28-2.11-2.31-3.59-3.08-.42-.24-1.06-.52-1.92-.84-.02,0-.03,0-.05-.01-.14-.04-.28-.08-.4-.11-.39-.11-.59-.55-.4-.91.3-.62.55-1.26.73-1.93.18-.47.32-1.07.43-1.82.06-.57.1-1.16.1-1.79-.07-1.41-.36-2.69-.86-3.83-.21-.44-.38-.73-.51-.89-.2-.32-.39-.61-.59-.88-.2-.27-.45-.52-.75-.78-.44-.41-.68-.65-.75-.7-.79-.67-1.84-1.25-3.13-1.76-1.87-.68-3.97-1-6.29-.96-1.61.06-3.2.29-4.79.7,0,0-.01,0-.01,0-.51.13-1.03.28-1.54.46-.01,0-.01,0-.02,0-.49.16-.98.34-1.47.54-.64.34-1.13.78-1.5,1.27.02,0,.05,0,.08,0-.29,1.17-.06,1.51-.81,2.46.47,1.05.21,1.33-.34,1.66l.18,1.16.24,1.53s0,.01,0,.01l4.34,27.62s0,.04.02.12l.02.08c.21.99,1.38,5.29,6.45,4.64.12-.02.24-.03.36-.06.23-.04.45-.07.65-.1,2.44-.4,4.74-1.02,6.88-1.85,2.51-1.02,4.63-2.32,6.36-3.89.16-.13.39-.35.7-.66.42-.38.65-.63.7-.75l.69-.83.31-.37.3-.45c.25-.4.43-.68.54-.83.04-.05.07-.1.1-.16l.37-.95s0-.03.02-.04c.14-.29.28-.61.41-.95.08-.33.18-.67.31-1.01,0-.03.02-.06.02-.09.37-1.48.46-2.95.27-4.39ZM364.69,470.27c-.33,0-.28-.17.23-.74.34-.33.68-.5.85-.5.11,0,.11.06.11.17,0,.39-.85,1.07-1.19,1.07ZM371.74,480.92c-.4.15-.85-.11-.9-.54l-.79-6.42c-.04-.35.21-.68.56-.73.37-.06.72-.1,1.05-.13,1.27-.06,2.41.09,3.39.44.03.01.07.03.1.04.45.23.76.42.94.56.24.21.4.39.47.55.14.27.23.61.26.99-.03.23-.04.46-.02.68-.09.29-.12.47-.12.52-.27.82-.79,1.57-1.58,2.26-.9.71-1.93,1.25-3.08,1.64-.09.04-.18.07-.27.11ZM383.66,493.18c-.04.17-.08.35-.13.52-.04.12-.1.23-.18.36-.08.12-.13.27-.17.44l-.22.36-.15.18-.15.27-.3.37-.39.37c-.18.16-.3.28-.36.34-.02.02-.04.04-.06.06-1.15,1-2.57,1.83-4.24,2.48-1,.42-2.05.77-3.18,1.04-.37.1-.75-.17-.8-.55l-1.21-9.23c-.04-.32.16-.62.46-.71,1.01-.3,1.97-.52,2.88-.65,1.9-.29,3.55-.29,4.93-.02,1.41.26,2.41.78,3,1.55.02.03.04.06.06.1.17.29.3.6.39.94.01.05.02.1.02.14.03.49-.03,1.04-.19,1.64Z"/>
      <path class="cls-2" d="M451.08,465.69h-.13c-.74,0-1.37.13-1.89.33.08.26.03.54.03.8,0,.44-.23.77-.73.95-.19.07-.38.12-.59.17.04.1.04.21.06.31.03.2.15.41,0,.62-.24.38-.78.38-1.14.62-.03.02-.06.04-.09.05l-.22,19.06c0,.66-1.1.85-1.43.25l-11.09-20.18c-.12-.22-.39-.36-.68-.36l-2.5-.02c-.14.19-.38.32-.64.37-.26.05-.51.11-.76.17-.08.02-.15.04-.23.05,0,0-.02,0-.03,0,0,0,0,0-.01,0h-.02s0,0,0,0h0c-.08.04-.17.07-.25.09h0c-.25.14-.64.13-1.08.13-.3,0-.86,0-.94.1-.23.32-.51.68-.81,1.05-.28.34-.57.69-.8,1.02l-.41,33.33v.02c.02.29.31,3.69,3.6,3.91h.69s.02,0,.02,0c3.25-.2,4.06-2.01,4.21-3.17v-.77s.01-.04.01-.04l.21-16.7c0-.65,1.08-.85,1.43-.26l9.99,16.75c.19.32.48.58.82.74.51.23,1.25.53,1.67.49.31-.03.62-.05.92.01l1.9.37h0s.03,0,.05,0h.28c1.99-.06,3.21-1.3,3.87-2.77.25-.57.37-1.19.38-1.82l.4-32.77c-.14-1.02-.95-2.86-4.07-2.93ZM450.19,468.94c-.39,0-.32-.16.26-.69.39-.32.78-.48.98-.48.13,0,.13.06.13.16,0,.37-.97,1.01-1.36,1.01Z"/>
      <path class="cls-1" d="M302.7,502.76c-1.07-1.09-2.33-1.61-3.65-1.94-.54-.13-1.16-.25-1.7-.06-1.03.4-.98,1.64-.98,2.66v.02c0,1.99.44,4.07,2.02,5.41.67.58,1.47.98,2.22,1,1.09.06,2.1-.64,2.77-1.48,1.44-1.78.86-4.08-.68-5.62ZM302.12,508.38c.76-1.34.91-2.84.12-4.24,1.66.72,1.52,3.57-.12,4.24Z"/>
      <path class="cls-2" d="M420.04,486.77c-.11-1.97-.28-3.75-.5-5.33-.34-1.98-.74-3.75-1.19-5.33-.68-2.32-1.52-4.2-2.54-5.67-.85-1.18-1.81-2.12-2.88-2.79-.63-.39-1.32-.69-2.07-.89-.77-.2-1.51-.3-2.25-.3-.79,0-1.52.09-2.2.26-.79.22-1.47.51-2.03.85-1.01.62-1.98,1.44-2.88,2.45-1.18,1.41-2.23,3.19-3.13,5.33-1.13,2.77-2.09,6.21-2.88,10.33-.62,3.1-1.1,6.52-1.44,10.24-.17,1.69-.31,3.41-.42,5.16-.05.82-.1,2.58-.13,3.35.2,1.15.87,2.61,2.88,2.84l1.06.02c2.53-.09,3.2-.94,3.48-1.79.04-.95.1-2.93.17-4.01.11-1.63.25-3.22.42-4.78,0-.02,0-.06,0-.08h0c.03-.68.62-1.2,1.29-1.17l10.05.45v1.01c-.06,1.64-.11,3.27-.17,4.91-.03.48-.06,1.27-.09,2.13h0c0,.17-.01.33-.02.5v.03c.02,1.15.39,3.77,3.4,3.77,3.85,0,3.73-1.67,4.03-2.76h0c.04-1.28.09-2.61.13-3.33.06-1.69.11-3.38.17-5.08.05-3.78-.03-7.22-.26-10.33ZM397.05,484.69l-.77,3.86-.5,4.81-.51,3.37v1.45s-.25.96-.25.96l-.26.97.75-8.18.51-3.37.5-2.38.52-2.43.21-.78.31-1.15-.51,2.89ZM404.63,469.05c.34-.34.68-.51.85-.51.11,0,.11.06.11.17,0,.39-.85,1.07-1.19,1.07s-.28-.17.23-.74ZM411.78,488.35l-9.09-.39c0-.05.01-.18.04-.38.02-.16.04-.29.04-.4,0-.05.01-.09.02-.13.73-3.58,1.57-6.52,2.52-8.82.57-1.46,1.19-2.6,1.86-3.38.34-.4.62-.65.85-.77.06-.05.17-.11.34-.17h.25c.11,0,.26.03.42.09.17.11.39.37.68.76.56.79,1.07,1.92,1.53,3.39.67,2.36,1.12,5.38,1.35,9.08,0,.04.01.08.02.11.13.52-.28,1.03-.83,1.01Z"/>
      <path class="cls-2" d="M258.35,503.92c-.11-1.87-1.66-3.36-3.57-3.36h-3.23c-1.98,0-3.59-1.61-3.58-3.59l.07-27.72c0-1.97-1.58-3.57-3.54-3.59h-.76c-.18,0-.37,0-.55.03.03.44-.62,1.29-2.47,2.62.25,1.12-.08,1.64-.61,2.11l-.14,34.56c-.01,1.99,1.6,3.6,3.59,3.6h4.33v-.09h6.91c1.18,0,2.22-.57,2.87-1.44.44-.59.7-1.32.71-2.1v-.76c.01-.09.01-.18,0-.27ZM242.89,468.72c-.36,0-.29-.18.24-.79.36-.36.72-.54.91-.54.12,0,.12.06.12.18,0,.42-.9,1.14-1.27,1.14Z"/>
      <path class="cls-2" d="M281.92,499.67c-.44,0-2.66-1.08-3.39-1.08-1.33,0-3.98.96-4.94,1.34-.51.19-1.03.26-1.48.26-1.33,0-2.51-.7-3.1-1.98-.37-.83-.59-1.53-.59-2.1,0-1.28,1.03-1.91,3.1-2.17,4.2-.45,8.11-2.87,9.07-5.54.37-1.15.66-4.2.66-7.01,0-7.32-2.28-12.23-7.07-14.33-1.55-.7-3.02-.96-5.75-.96-1.55,0-3.1.19-3.69.32-1.55.38-2.58.83-2.58,2.55,0,.58.15,1.15.37,1.66.07.19.15.38.15.51,0,.32-.29.57-1.18,1.02-.88.51-1.4,1.02-1.47,1.59-.08.51-.45,1.08-.89,1.27-.51.26-.66.32-.66,2.42,0,1.08.07,2.61.15,4.97.37,11.15,1.48,17.78,3.76,21.15,2.14,3.19,5.68,4.78,9.58,4.78,3.17,0,6.56-1.08,9.73-3.25,1.99-1.34,3.46-2.99,3.46-3.82,0-.7-2.06-1.59-3.24-1.59ZM274.04,485.15c.22,0,.07.38-.3.83-.66.76-1.25.95-1.25.51,0-.32,1.18-1.34,1.55-1.34ZM261.87,474.89l-.07-.06c0-.38,1.62-2.42,1.99-2.42.15,0,.22.06.22.19,0,.32-1.84,2.29-2.14,2.29ZM266.15,468.65c-.07.19-.59.45-1.03.51-.73.13-.81.07-.37-.38.59-.64,1.62-.7,1.4-.13ZM267.03,482.41c0-.76.08-1.78.22-3.19.3-2.87.59-3.82,1.11-4.14.44-.32.96-.45,1.47-.45.66,0,1.33.19,1.92.57.89.57.89.83,1.03,4.01.07.9.07,1.59.07,2.17,0,2.23-.37,2.81-1.62,3.44-.66.38-1.03.51-1.4.51-.29,0-.66-.13-1.18-.32-1.18-.45-1.63-.89-1.63-2.61Z"/>
      <path class="cls-2" d="M232.44,465.69c-.37,0-.81.13-1.7.33-.96.2-1.4.52-1.48.98-.07.39-.44.78-1.03.91-1.03.2-2.27-.3-2.81,7.71-.29,4.32.6,14.1-2.56,14.1-2.9,0-1.86-9.78-4.08-17.17-1.4-4.66-.81-5.68-1.99-6.27-.3-.13-.74-.2-1.18-.2-1.99,0-4.72,1.24-4.72,2.48,0,.33-.37.78-.81.98-.44.2-.74.59-.59.85.15.26.52,1.76.81,3.46,1.11,5.62,2.88,12.48,4.5,17.51.89,2.74,1.92,6.4,2.36,8.17.44,1.7,1.04,3.27,1.26,3.46.22.13.3.26.3.59,0,.52-.37,1.63-1.26,4.44-.59,1.83-1.03,3.85-1.03,4.31,0,.05,0,.09,0,.13h0c.05.29.13.52.25.71.37.65,1.06.81,1.74.71h0s.04,0,.06-.01h0c.43-.08.85-.27,1.18-.5.77-.25,1.61-.39,2.29-.39h.52c1.26,0,2.44-.59,2.44-1.18,0-.26.3-.59.59-.85,1.62-1.18,2.44-4.05,3.84-13.53,1.18-7.97,2.36-13.53,3.84-18.29,2.29-7.32,2.95-9.41,2.95-10.39,0-1.57-2.07-3.07-3.69-3.07ZM212.87,470.52c-.44.33-.52.26-.52-.13,0-.78.37-1.5.74-1.5.15,0,.37.26.37.59s-.3.85-.59,1.05ZM230,470c-.81,1.05-1.03,1.18-1.03.33,0-.59.96-1.63,1.55-1.63.07,0,.15.07.15.13,0,.2-.22.59-.67,1.18Z"/>
      <path class="cls-2" d="M205.65,469.16l-.02-.03c-2.15-2.78-5.16-1.54-6.47,1.39-1.41,3.22.65,15.03-2.02,16.35-2.36.55-9.01,2.77-9.44-1.29-.51-5.52.46-14.51-1.04-18.21-3.33-2.77-6.43-.99-7.42,2.88-.02,4.65-1.2,29.22-1.09,36.81.06.75.32,1.82,1.3,1.78.01,0,.03,0,.04,0,.86-.04,1.87-.28,2.51-.39,2.47-.32,3.9-1.36,4.37-4.13,1.07-3.78-.81-10.52,5.25-10.06,1.84.05,4.57-.44,5.51,1.25,1.04,2.92,0,6.37.26,9.39,0,2.97,1.38,3.79,3.98,2.2,1.24-.63,2.6-1.1,3.31-2.07,1.4-2.11.88-3.52,1.01-6.3.08-7.14.21-20.35.29-27.93.05-.58.04-1.17-.34-1.66ZM182.18,470.19l-.03.03c-1.14.89.1-1.98.24-1.97.23-.12.22.55.22.71,0,.45-.12.94-.43,1.24ZM199.66,487.47c-.2.27-.56.53-.86.67l-.04.02c-1.2.46.75-1.42.93-1.22.23.07.09.37-.03.52ZM202.05,470.39c-.12.58-.79,1.35-.99,1.3h-.02c-.23-.21.59-1.8.94-1.75.15.07.1.3.07.44Z"/>
    </g>
  </g>
  <g>
    <g>
      <path class="cls-1" d="M386.45,307.33c-3.78.28-7.39,2.01-7.08,6.26.31,4.25,4.13,5.46,7.93,5.18,3.79-.29,7.35-2.05,7.03-6.29-.32-4.24-4.1-5.43-7.88-5.15Z"/>
      <path class="cls-1" d="M404.61,305.94c-3.78.28-7.39,2.01-7.08,6.26.31,4.25,4.13,5.47,7.93,5.18,3.79-.29,7.35-2.05,7.03-6.29-.32-4.24-4.1-5.43-7.88-5.15Z"/>
      <path class="cls-4" d="M408.15,265.97c-.92-4.17-3.88-8.94-8-9.47-4.2-.53-8.67,2.46-9.13,6.71-.49,2.55.56,5.16.74,7.98.15,2.03-.31,3.99-1.34,5.59-2.01,3.11-6.56,1.9-9.7,1.09-6.25-1.47-11.17-4.08-14.47-9.49-1-1.7-1.62-3.61-2.05-5.53-2.36-11.42-5.64-23.47-10.01-33.86-1.13-2.59-2.47-5.61-4.73-7.23-2.5-1.58-6.39-1.6-9.12,0-1.61,1.05-1.8,3.05-2.42,4.79-1.07,2.71-1.13,5.53.04,8.26,3.86,12.53,15.61,49.93,8.79,60.43-2.92,4.19-9.74,7.57-15.31,7.72-3.62-.08-6.55-1.89-9.67-4.16-3.18-2.3-4.52-6.25-3.65-10.05.46-2.22,1.59-4.25,3.23-5.81,2.6-2.65,6.53-4.02,8.3-7.18.87-1.66.42-3.67-.95-4.93-4.1-3.73-11.32-2.83-15.97-.24-3.98,2.42-7.93,5.38-10.06,9.63-2.25,4.48-2.19,9.43-1.77,14.26.26,4.46,2.62,8.61,5.01,12.15,7.89,12.13,26.97,10.29,39.2,7,12.22-3.39,19.51-10.87,20.58-23.75.52-5.71,5.15-1.83,8.16-.86,2.5,1.04,5.45,1.32,8.22,1.41,17.5,1.44,30.31-4.41,26.13-24.22l-.05-.23ZM393.51,259.31c-.06.01-.55.16-.5.13-.02,0,.39-.16.57-.16.82-.04.77.16.02.64-1.33.74-.57-.17-.08-.58l-.02-.03ZM311.45,273.95c-2.17-.22,1.41-2.25,1.92-2.23.81.97-.91,2.21-1.76,2.25h-.15Z"/>
      <path class="cls-4" d="M445.26,284.35s.01,0,.02,0c0,0,.03,0,.03,0,0-.02-.04,0-.04,0ZM502.05,305.37c2.93-7.52,1.69-16.66-.59-24.01-3.31-9.97-10.11-18.76-16.62-25.9-1.63-1.79-3.36-3.34-5.49-4.41-3.39-1.69-8.87-2.8-10.88,1.22-2.04,3.16-1.41,4.93.48,8.04.41,1.1-.35,1.35-1.42,1.57-7.15.79-11.84,7.38-14.53,13.6-1.24,2.33-.64,5.42-2.2,7.49-4.71,3.23-11.88-.25-14.17-5.23-.81-1.63-1.06-3.48-.97-5.29.48-6.88,1.54-14.29,1.99-20.98.66-5.51-.54-11.14-5.4-14.31-2.93-1.96-5.1.05-6.72,2.64-.91,1.09-2.21,1.75-3.2,2.76-1.66,1.52-1.83,4-2.14,6.17-1.2,14.58-6.44,32.4,5.24,43.89,4.69,3.93,11.66,4.07,17.48,4.46,6.5.13,13.3.85,19.37,3.56,8.45,2.97,14.53,11.21,23.92,11.93,4.06.28,7.7-1.41,11.14-3.45,1.79-1.06,3.65-2.04,4.6-3.58l.11-.18ZM475.39,283.68c-1.8,2.13-5.33,5-8.26,3.71-2.82-2.47-3.36-7.27-1.28-10.45,1.99-2.26,4.81-4.33,7.87-3.64,3.37,1.84,3.68,7.27,1.79,10.21l-.13.17ZM488.28,298.44c-2.81,1.07-5.96.47-8.36-1.3-.17-.18-.25-.37-.21-.56,1.38-1.67,4-2.68,5.28-4.46,1.18-1.56,2.1-3.61,2.83-5.53.83-2.27,1.36,1.85,1.55,2.54.45,2.65.39,5.17-.21,7.87-.12.48-.31,1.03-.71,1.31l-.17.11Z"/>
      <path class="cls-1" d="M427.89,235.59c-.05.05-.12-.05-.13-.1,0-.04,0-.06.05-.05.04,0,.13.1.08.15Z"/>
      <path class="cls-1" d="M313.44,271.6s-.04.02-.06.02c-.02,0-.1.03-.09-.02.01-.05.13-.04.14,0Z"/>
    </g>
    <g>
      <path class="cls-5" d="M176.97,320.86s0,.06,0,.06c.01,0,0-.03,0-.03,0,0,0-.03,0-.03Z"/>
      <path class="cls-5" d="M176.98,320.8s0,.04,0,.04c-.01,0,0-.03,0-.04,0,0,0,0,0,0Z"/>
      <path class="cls-5" d="M177.03,316.43c-.1-.02-.03-.06-.05-.09-.02-.03-.04-.03-.02-.04.59-.34.17.15.07.13Z"/>
      <path class="cls-5" d="M175.82,308.25c.18-.35.49.77,0,0,0,0,0,0,0,0Z"/>
      <path class="cls-5" d="M231.65,290.04s0,.02,0,.02c0,.01.02.04,0,.04s-.03-.06,0-.07c.01,0,0,0,.01,0Z"/>
      <path class="cls-5" d="M231.67,290.19s0-.01,0-.02c0-.01,0-.05-.01-.06-.01,0,0,.02,0,.03,0,0,.01.05,0,.05Z"/>
    </g>
    <path class="cls-1" d="M215.04,329.49c.75,2.34,2.19,5.14,3.79,6.73,1.59,1.59,3.47,2.94,5.39,2.01,3.7-1.81,4.78-4.85,2.6-8.53-2.19-3.68-6.18-5.18-10.52-4.9-1.38.09-2.02,1.76-1.71,3.05.11.48.31,1.17.47,1.64Z"/>
    <path class="cls-1" d="M142.68,238.14c-.99,3.15-1.15,6.8.21,9.66,1.18,2.47,3.11,4.41,5.66,4.11,4.94-.58,8.18-4.03,6.96-9.03-1.22-5-5.31-7.23-9.65-9.43-.96-.49-1.89.25-2.19,1.28s-.66,2.34-1,3.41Z"/>
    <path class="cls-1" d="M208.6,251.54c4.58-.43,8.63-1.22,13.16-2.16,2.24-.47,3.67-2.34,3.61-4.8-.05-2.08-1.59-4.58-3.88-4.38-4.6.39-8.67,1.14-13.2,2.09-2.24.47-3.65,2.36-3.62,4.79.02,2.06,1.65,4.66,3.93,4.45.12.17.12.16,0,0Z"/>
    <path class="cls-4" d="M280.93,282.1c-5.82-21.02-16.06-32.23-23.98-50.7-1.21-2.83-2.93-4.42-5.72-5.86-2.3-1.18-4.56-.2-6.66,1.01-.04.02-.11.05-.11.07,0,.02.03.02.07.06.04.04.15.1.2.17s.08.15.11.24.05.14.03.28-.06.36-.13.52c-.07.16-.19.32-.3.46-.11.13-.28.27-.41.36-.12.09-.2.13-.32.16-.02,0-.02,0-.02.01-.01.04,0,.1.02.14.01.04,0,0,.02.05.02.06.05.22.04.29-.01.07-.05.12-.06.19-.01.07-.11.11-.1.18,0,.08.05.02.1.12s.14.31.12.47c-.03.16-.04.33-.11.49-.06.16-.04.14-.15.36s-.44.45-.6.77c-.01.02-.18-.59.07.22s1.39,3.34,2.18,4.77c.79,1.42,2.22,3.74,2.95,5.37,6.57,14.64,14.89,28.65,20.41,43.59,1.17,3.18,1.36,5.49,1.38,8.67,0,.15-.03.17-.05.33-.01.16-.02.32-.07.49-2.33,7.92-8.54,7.77-15.14,4.41-1.64-.83-3.31-2.19-4.87-3.25-.14-.09-.17-.13-.4-.3-.22-.17-.82-.63-1.08-.85s-.56-.44-.78-.65c-8.02-7.5-13.31-16.95-20.25-25.32-.24-.28-.39-.54-.6-.64-.21-.11.09.03-.12-.04-.21-.08-.56.09-.85.1-.69.01-1.45.05-2.13-.06-.69-.11-1.13-.41-1.62-.88-.02-.02,0-.02-.07-.07-.06-.05-.31-.11-.3-.25,0,0,.04,0-.02-.01-.06-.01.03,0-.15-.04-.18-.04-.44-.03-.81-.08-.38-.05-1.14-.21-1.52-.62-3.59,2.54-5.71,3.15-4.83,8.47,1.11,6.72,1.26,15.44.41,22.29-.7,5.57-6.15,8.68-9.22,8.97-2.3.21-.5.04-.52.04-.84.01-1.07,0-1.53-.13-6.41-1.77-9.81-7.12-13.44-12.14-4.67-6.45-7.63-13.67-12.58-19.6-1.51-1.81-2.57-2.33-4.65-3.29-.02,0,.77.2-.27-.06-1.05-.26-5.11-.17-6.64,1.17-.07.06-.11.21-.14.32-.31,1.16-.82,2.38-1.31,3.44-.27.58-.36,1.67-.45,2.04-.09.38-.01.05-.04.19-.03.14.01-.07,0,.03-.04.23.06-.33-.03.13-.08.45.07.77.37,1.64,3.55,10.21,18.79,37.33,5.56,43.36-1.23.56-2.7.33-4.88-.62-9.03-3.9-14.04-15.27-17.87-24.16-1.64-3.8-3.61-6.05-7.63-6.79-.38-.07-.76-.03-1.15.03-1.74.28-3.37.93-4.66,2.16-.48.46-.68,1.72-.96,2.18-.27.46-.3.83-.43,1.1-.13.27.06-.11-.05.15-.12.25-.42.86-.43,1.21s.03.58.16.91c5.95,14.64,12.98,27.77,25.92,36.88,6.3,4.44,11.99,5.97,19.12,4.4,5.5-1.22,8.9-5,12.21-9.52,1.86-2.54,1.67-6.86,2.04-9.99.12-.98.48-1.74,1.34-2.15.47-.22.9-.18,1.38-.04,4.78,1.43,9.15,2.42,14.16,1.9.08,0,.22-.03.27-.04.05,0,.03,0,.05,0,10.15-3.89,14.12-15.08,24.38-18.27.34-.11.8.06.97.05.17,0,.1.04.14.05,5.36,1.44,10.89,7.31,15.4,9.21,6.52,2.74,11.6,4.2,18.14,3.43,19.37-2.28,16.91-21.45,13.53-33.64ZM166.09,277.6c-.64.3-.12-1.04.02-1.24s1.27-1.7,1.44-1.04c.17.66-.82,1.98-1.46,2.28ZM135.65,301.34c-.38.62-.65-1-.64-1.23.01-.22.18-2.18.66-1.68.48.5.36,2.29-.02,2.91ZM218.34,269.87c-.01.64-1.23,1.83-1.87,2.02-.64.19-.17-.55-.08-.75.09-.19.13-.27.3-.47.17-.2.48-.51.77-.62,0,0,.01-.02.01-.02.11.02.88-.8.86-.16ZM246.7,228.61c.08.59-.82,1.97-1.45,2.28-.63.31-.12-.94-.05-1.08.07-.15-.02,0,.09-.16.11-.15.54-.71.7-.82.16-.11.62-.81.71-.22Z"/>
  </g>
</svg>